<svg xmlns="http://www.w3.org/2000/svg" xmlns:xlink="http://www.w3.org/1999/xlink" viewBox="0,0,256,256" width="64px" height="64px"><g fill="#901c1c" fill-rule="nonzero" stroke="none" stroke-width="1" stroke-linecap="butt" stroke-linejoin="miter" stroke-miterlimit="10" stroke-dasharray="" stroke-dashoffset="0" font-family="none" font-weight="none" font-size="none" text-anchor="none" style="mix-blend-mode: normal"><g transform="scale(4,4)"><path d="M32,7.98438c-5.94141,0 -11.87891,0.33203 -17.78125,0.98438l-3.1875,0.35547c-4.06641,0.45313 -7.31641,3.59766 -7.89844,7.65625c-1.42187,9.96484 -1.48437,20.07422 -0.17969,30.05469l0.24219,1.88672c0.53906,4.11328 3.79297,7.30469 7.91406,7.76563l3.10938,0.34375c5.90234,0.65625 11.83984,0.98438 17.78125,0.98438c5.94141,0 11.88281,-0.32812 17.78125,-0.98437l3.10938,-0.34375c4.12109,-0.46094 7.375,-3.65234 7.91016,-7.76562l0.24609,-1.89062c1.30469,-9.97656 1.24219,-20.08984 -0.18359,-30.05078c-0.57812,-4.05859 -3.82812,-7.20312 -7.89453,-7.65625l-3.1875,-0.35547c-5.90234,-0.65234 -11.83984,-0.98437 -17.78125,-0.98437zM32,9.98438c5.86719,0 11.73438,0.32422 17.55859,0.97266l3.1875,0.35547c3.16406,0.34766 5.6875,2.79688 6.14063,5.94922c1.39453,9.78516 1.45703,19.71484 0.17578,29.51172l-0.24609,1.88672c-0.41797,3.19922 -2.94531,5.67969 -6.14844,6.03906l-3.10937,0.34375c-11.65234,1.29297 -23.46484,1.29688 -35.11719,0l-3.10937,-0.34375c-3.20312,-0.35937 -5.73438,-2.83984 -6.15234,-6.03906l-0.24219,-1.88281c-1.28125,-9.80078 -1.21875,-19.73047 0.17969,-29.51562c0.44922,-3.15234 2.97266,-5.60156 6.13672,-5.94922l3.1875,-0.35547c5.82813,-0.64844 11.69141,-0.97266 17.55859,-0.97266zM9,14c-0.55078,0 -1,0.44531 -1,1v2c0,0.55469 0.44922,1 1,1c0.55078,0 1,-0.44531 1,-1v-2c0,-0.55469 -0.44922,-1 -1,-1zM14,14c-0.55078,0 -1,0.44531 -1,1v2c0,0.55469 0.44922,1 1,1c0.55078,0 1,-0.44531 1,-1v-2c0,-0.55469 -0.44922,-1 -1,-1zM19,14c-0.55078,0 -1,0.44531 -1,1v2c0,0.55469 0.44922,1 1,1c0.55078,0 1,-0.44531 1,-1v-2c0,-0.55469 -0.44922,-1 -1,-1zM24,14c-0.55078,0 -1,0.44531 -1,1v2c0,0.55469 0.44922,1 1,1c0.55078,0 1,-0.44531 1,-1v-2c0,-0.55469 -0.44922,-1 -1,-1zM29,14c-0.55078,0 -1,0.44531 -1,1v2c0,0.55469 0.44922,1 1,1c0.55078,0 1,-0.44531 1,-1v-2c0,-0.55469 -0.44922,-1 -1,-1zM34,14c-0.55078,0 -1,0.44531 -1,1v2c0,0.55469 0.44922,1 1,1c0.55078,0 1,-0.44531 1,-1v-2c0,-0.55469 -0.44922,-1 -1,-1zM39,14c-0.55078,0 -1,0.44531 -1,1v2c0,0.55469 0.44922,1 1,1c0.55078,0 1,-0.44531 1,-1v-2c0,-0.55469 -0.44922,-1 -1,-1zM44,14c-0.55078,0 -1,0.44531 -1,1v2c0,0.55469 0.44922,1 1,1c0.55078,0 1,-0.44531 1,-1v-2c0,-0.55469 -0.44922,-1 -1,-1zM49,14c-0.55078,0 -1,0.44531 -1,1v2c0,0.55469 0.44922,1 1,1c0.55078,0 1,-0.44531 1,-1v-2c0,-0.55469 -0.44922,-1 -1,-1zM54,14c-0.55078,0 -1,0.44531 -1,1v2c0,0.55469 0.44922,1 1,1c0.55078,0 1,-0.44531 1,-1v-2c0,-0.55469 -0.44922,-1 -1,-1zM24.98438,21.89063c-0.17187,0.00391 -0.33984,0.05078 -0.49219,0.14063c-0.30469,0.17969 -0.49219,0.50391 -0.49219,0.85938v20.10938c0,0.35547 0.1875,0.67969 0.49219,0.85938c0.15625,0.09375 0.33203,0.14063 0.50781,0.14063c0.16797,0 0.33203,-0.04297 0.48438,-0.125l18.28516,-10.01953c0.32031,-0.17969 0.52344,-0.51172 0.52344,-0.875c0,-0.36719 -0.19922,-0.70312 -0.51562,-0.87891l-18.29297,-10.08594c-0.15625,-0.08594 -0.32812,-0.12891 -0.5,-0.125zM26,24.58203l15.21875,8.39063l-15.21875,8.33984zM9,48c-0.55078,0 -1,0.44531 -1,1v2c0,0.55469 0.44922,1 1,1c0.55078,0 1,-0.44531 1,-1v-2c0,-0.55469 -0.44922,-1 -1,-1zM14,48c-0.55078,0 -1,0.44531 -1,1v2c0,0.55469 0.44922,1 1,1c0.55078,0 1,-0.44531 1,-1v-2c0,-0.55469 -0.44922,-1 -1,-1zM19,48c-0.55078,0 -1,0.44531 -1,1v2c0,0.55469 0.44922,1 1,1c0.55078,0 1,-0.44531 1,-1v-2c0,-0.55469 -0.44922,-1 -1,-1zM24,48c-0.55078,0 -1,0.44531 -1,1v2c0,0.55469 0.44922,1 1,1c0.55078,0 1,-0.44531 1,-1v-2c0,-0.55469 -0.44922,-1 -1,-1zM29,48c-0.55078,0 -1,0.44531 -1,1v2c0,0.55469 0.44922,1 1,1c0.55078,0 1,-0.44531 1,-1v-2c0,-0.55469 -0.44922,-1 -1,-1zM34,48c-0.55078,0 -1,0.44531 -1,1v2c0,0.55469 0.44922,1 1,1c0.55078,0 1,-0.44531 1,-1v-2c0,-0.55469 -0.44922,-1 -1,-1zM39,48c-0.55078,0 -1,0.44531 -1,1v2c0,0.55469 0.44922,1 1,1c0.55078,0 1,-0.44531 1,-1v-2c0,-0.55469 -0.44922,-1 -1,-1zM44,48c-0.55078,0 -1,0.44531 -1,1v2c0,0.55469 0.44922,1 1,1c0.55078,0 1,-0.44531 1,-1v-2c0,-0.55469 -0.44922,-1 -1,-1zM49,48c-0.55078,0 -1,0.44531 -1,1v2c0,0.55469 0.44922,1 1,1c0.55078,0 1,-0.44531 1,-1v-2c0,-0.55469 -0.44922,-1 -1,-1zM54,48c-0.55078,0 -1,0.44531 -1,1v2c0,0.55469 0.44922,1 1,1c0.55078,0 1,-0.44531 1,-1v-2c0,-0.55469 -0.44922,-1 -1,-1z"></path></g></g></svg>