<svg width="1024" height="1024" viewBox="0 0 1024 1024" fill="none" xmlns="http://www.w3.org/2000/svg">
<path d="M923 283.6C909.596 252.564 890.269 224.439 866.1 200.8C841.913 177.091 813.396 158.249 782.1 145.3C749.648 131.819 714.841 124.919 679.7 125C630.4 125 582.3 138.5 540.5 164C530.5 170.1 521 176.8 512 184.1C503 176.8 493.5 170.1 483.5 164C441.7 138.5 393.6 125 344.3 125C308.8 125 274.4 131.8 241.9 145.3C210.5 158.3 182.2 177 157.9 200.8C133.7 224.412 114.368 252.544 101 283.6C87.1 315.9 80 350.2 80 385.5C80 418.8 86.8 453.5 100.3 488.8C111.6 518.3 127.8 548.9 148.5 579.8C181.3 628.7 226.4 679.7 282.4 731.4C375.2 817.1 467.1 876.3 471 878.7L494.7 893.9C505.2 900.6 518.7 900.6 529.2 893.9L552.9 878.7C556.8 876.2 648.6 817.1 741.5 731.4C797.5 679.7 842.6 628.7 875.4 579.8C896.1 548.9 912.4 518.3 923.6 488.8C937.1 453.5 943.9 418.8 943.9 385.5C944 350.2 936.9 315.9 923 283.6V283.6Z" fill="red"/>
</svg>
