<svg xmlns="http://www.w3.org/2000/svg" width="29.25" height="30" viewBox="0 0 29.25 30">
  <path id="heart-empty" d="M24.581,4.5A8.337,8.337,0,0,0,18,7.93,8.337,8.337,0,0,0,11.419,4.5c-4.535,0-8.044,3.922-8.044,8.992,0,6.211,4.971,11.2,12.5,18.883L18,34.5l2.123-2.125c7.53-7.687,12.5-12.672,12.5-18.883C32.625,8.422,29.116,4.5,24.581,4.5ZM18.9,30.227l-.3.3-.6.609-.6-.609-.3-.3A94.972,94.972,0,0,1,8.473,20.7c-1.969-2.711-2.841-4.93-2.841-7.2A6.9,6.9,0,0,1,7.3,8.859,5.443,5.443,0,0,1,11.419,7a6.213,6.213,0,0,1,4.859,2.539L18,11.813l1.723-2.273A6.19,6.19,0,0,1,24.581,7a5.468,5.468,0,0,1,4.127,1.859,6.911,6.911,0,0,1,1.666,4.633c0,2.266-.879,4.492-2.841,7.2A95.151,95.151,0,0,1,18.9,30.227Z" transform="translate(-3.375 -4.5)" fill="#901c1c"/>
</svg>
